<mxfile host="app.diagrams.net" modified="2024-03-30T17:10:59.636Z" agent="Mozilla/5.0 (Windows NT 10.0; Win64; x64) AppleWebKit/537.36 (KHTML, like Gecko) Chrome/123.0.0.0 Safari/537.36" etag="eO33HjCEwTvSKlRGykIV" version="24.2.1" type="device">
  <diagram name="Strona-1" id="R8rPdg5ziAI5sGop3C_I">
    <mxGraphModel dx="2232" dy="1144" grid="1" gridSize="10" guides="1" tooltips="1" connect="1" arrows="1" fold="1" page="1" pageScale="1" pageWidth="827" pageHeight="1169" math="0" shadow="0">
      <root>
        <mxCell id="0" />
        <mxCell id="1" parent="0" />
        <mxCell id="35l89LsYAAtyieYQpwOn-1" value="Ogólna mapa procesów" style="swimlane;html=1;childLayout=stackLayout;resizeParent=1;resizeParentMax=0;startSize=20;whiteSpace=wrap;" parent="1" vertex="1">
          <mxGeometry x="140" y="20" width="920" height="830" as="geometry" />
        </mxCell>
        <mxCell id="35l89LsYAAtyieYQpwOn-2" value="Rozchód surocwów" style="swimlane;html=1;startSize=20;" parent="35l89LsYAAtyieYQpwOn-1" vertex="1">
          <mxGeometry y="20" width="200" height="810" as="geometry" />
        </mxCell>
        <mxCell id="35l89LsYAAtyieYQpwOn-10" style="edgeStyle=orthogonalEdgeStyle;rounded=0;orthogonalLoop=1;jettySize=auto;html=1;" parent="35l89LsYAAtyieYQpwOn-2" source="35l89LsYAAtyieYQpwOn-6" target="35l89LsYAAtyieYQpwOn-8" edge="1">
          <mxGeometry relative="1" as="geometry" />
        </mxCell>
        <mxCell id="35l89LsYAAtyieYQpwOn-6" value="" style="points=[[0.145,0.145,0],[0.5,0,0],[0.855,0.145,0],[1,0.5,0],[0.855,0.855,0],[0.5,1,0],[0.145,0.855,0],[0,0.5,0]];shape=mxgraph.bpmn.event;html=1;verticalLabelPosition=bottom;labelBackgroundColor=#ffffff;verticalAlign=top;align=center;perimeter=ellipsePerimeter;outlineConnect=0;aspect=fixed;outline=standard;symbol=message;" parent="35l89LsYAAtyieYQpwOn-2" vertex="1">
          <mxGeometry x="40" y="30" width="50" height="50" as="geometry" />
        </mxCell>
        <mxCell id="35l89LsYAAtyieYQpwOn-7" value="Informacja o konieczności sprawdzenia stanu zapotrzebowania" style="text;html=1;align=center;verticalAlign=middle;whiteSpace=wrap;rounded=0;" parent="35l89LsYAAtyieYQpwOn-2" vertex="1">
          <mxGeometry x="90" y="40" width="110" height="30" as="geometry" />
        </mxCell>
        <mxCell id="35l89LsYAAtyieYQpwOn-12" style="edgeStyle=orthogonalEdgeStyle;rounded=0;orthogonalLoop=1;jettySize=auto;html=1;" parent="35l89LsYAAtyieYQpwOn-2" source="35l89LsYAAtyieYQpwOn-8" target="35l89LsYAAtyieYQpwOn-11" edge="1">
          <mxGeometry relative="1" as="geometry" />
        </mxCell>
        <mxCell id="35l89LsYAAtyieYQpwOn-8" value="Sprawdzenie stanu zaopatrzenia stanowisk produkcyjnych" style="points=[[0.25,0,0],[0.5,0,0],[0.75,0,0],[1,0.25,0],[1,0.5,0],[1,0.75,0],[0.75,1,0],[0.5,1,0],[0.25,1,0],[0,0.75,0],[0,0.5,0],[0,0.25,0]];shape=mxgraph.bpmn.task;whiteSpace=wrap;rectStyle=rounded;size=10;html=1;container=1;expand=0;collapsible=0;taskMarker=abstract;" parent="35l89LsYAAtyieYQpwOn-2" vertex="1">
          <mxGeometry x="10" y="120" width="110" height="70" as="geometry" />
        </mxCell>
        <mxCell id="35l89LsYAAtyieYQpwOn-11" value="Rozdysponowanie surowców z magazynu surowców przez magazyniera" style="points=[[0.25,0,0],[0.5,0,0],[0.75,0,0],[1,0.25,0],[1,0.5,0],[1,0.75,0],[0.75,1,0],[0.5,1,0],[0.25,1,0],[0,0.75,0],[0,0.5,0],[0,0.25,0]];shape=mxgraph.bpmn.task;whiteSpace=wrap;rectStyle=rounded;size=10;html=1;container=1;expand=0;collapsible=0;taskMarker=abstract;" parent="35l89LsYAAtyieYQpwOn-2" vertex="1">
          <mxGeometry x="5" y="220" width="120" height="70" as="geometry" />
        </mxCell>
        <mxCell id="35l89LsYAAtyieYQpwOn-16" style="edgeStyle=orthogonalEdgeStyle;rounded=0;orthogonalLoop=1;jettySize=auto;html=1;" parent="35l89LsYAAtyieYQpwOn-2" source="35l89LsYAAtyieYQpwOn-13" target="35l89LsYAAtyieYQpwOn-15" edge="1">
          <mxGeometry relative="1" as="geometry" />
        </mxCell>
        <mxCell id="35l89LsYAAtyieYQpwOn-13" value="Podział ilości surowców na każde stanowisko" style="points=[[0.25,0,0],[0.5,0,0],[0.75,0,0],[1,0.25,0],[1,0.5,0],[1,0.75,0],[0.75,1,0],[0.5,1,0],[0.25,1,0],[0,0.75,0],[0,0.5,0],[0,0.25,0]];shape=mxgraph.bpmn.task;whiteSpace=wrap;rectStyle=rounded;size=10;html=1;container=1;expand=0;collapsible=0;taskMarker=abstract;" parent="35l89LsYAAtyieYQpwOn-2" vertex="1">
          <mxGeometry x="5" y="310" width="120" height="50" as="geometry" />
        </mxCell>
        <mxCell id="35l89LsYAAtyieYQpwOn-14" style="edgeStyle=orthogonalEdgeStyle;rounded=0;orthogonalLoop=1;jettySize=auto;html=1;entryX=0.5;entryY=0;entryDx=0;entryDy=0;entryPerimeter=0;" parent="35l89LsYAAtyieYQpwOn-2" source="35l89LsYAAtyieYQpwOn-11" target="35l89LsYAAtyieYQpwOn-13" edge="1">
          <mxGeometry relative="1" as="geometry" />
        </mxCell>
        <mxCell id="35l89LsYAAtyieYQpwOn-18" style="edgeStyle=orthogonalEdgeStyle;rounded=0;orthogonalLoop=1;jettySize=auto;html=1;" parent="35l89LsYAAtyieYQpwOn-2" source="35l89LsYAAtyieYQpwOn-15" target="35l89LsYAAtyieYQpwOn-17" edge="1">
          <mxGeometry relative="1" as="geometry" />
        </mxCell>
        <mxCell id="35l89LsYAAtyieYQpwOn-15" value="Przeniesienie surowców z magazynu na stanowisko produkcyjne" style="points=[[0.25,0,0],[0.5,0,0],[0.75,0,0],[1,0.25,0],[1,0.5,0],[1,0.75,0],[0.75,1,0],[0.5,1,0],[0.25,1,0],[0,0.75,0],[0,0.5,0],[0,0.25,0]];shape=mxgraph.bpmn.task;whiteSpace=wrap;rectStyle=rounded;size=10;html=1;container=1;expand=0;collapsible=0;taskMarker=abstract;" parent="35l89LsYAAtyieYQpwOn-2" vertex="1">
          <mxGeometry x="5" y="380" width="120" height="80" as="geometry" />
        </mxCell>
        <mxCell id="35l89LsYAAtyieYQpwOn-17" value="Sprawdzenie ilości wydanych surowców z magazynu" style="points=[[0.25,0,0],[0.5,0,0],[0.75,0,0],[1,0.25,0],[1,0.5,0],[1,0.75,0],[0.75,1,0],[0.5,1,0],[0.25,1,0],[0,0.75,0],[0,0.5,0],[0,0.25,0]];shape=mxgraph.bpmn.task;whiteSpace=wrap;rectStyle=rounded;size=10;html=1;container=1;expand=0;collapsible=0;taskMarker=abstract;" parent="35l89LsYAAtyieYQpwOn-2" vertex="1">
          <mxGeometry x="5" y="480" width="120" height="50" as="geometry" />
        </mxCell>
        <mxCell id="35l89LsYAAtyieYQpwOn-28" style="edgeStyle=orthogonalEdgeStyle;rounded=0;orthogonalLoop=1;jettySize=auto;html=1;" parent="35l89LsYAAtyieYQpwOn-2" source="35l89LsYAAtyieYQpwOn-19" target="35l89LsYAAtyieYQpwOn-21" edge="1">
          <mxGeometry relative="1" as="geometry" />
        </mxCell>
        <mxCell id="35l89LsYAAtyieYQpwOn-19" value="Zapisanie ilości wydanych surowców z magazynu" style="points=[[0.25,0,0],[0.5,0,0],[0.75,0,0],[1,0.25,0],[1,0.5,0],[1,0.75,0],[0.75,1,0],[0.5,1,0],[0.25,1,0],[0,0.75,0],[0,0.5,0],[0,0.25,0]];shape=mxgraph.bpmn.task;whiteSpace=wrap;rectStyle=rounded;size=10;html=1;container=1;expand=0;collapsible=0;taskMarker=abstract;" parent="35l89LsYAAtyieYQpwOn-2" vertex="1">
          <mxGeometry x="5" y="550" width="120" height="50" as="geometry" />
        </mxCell>
        <mxCell id="35l89LsYAAtyieYQpwOn-20" style="edgeStyle=orthogonalEdgeStyle;rounded=0;orthogonalLoop=1;jettySize=auto;html=1;entryX=0.5;entryY=0;entryDx=0;entryDy=0;entryPerimeter=0;" parent="35l89LsYAAtyieYQpwOn-2" source="35l89LsYAAtyieYQpwOn-17" target="35l89LsYAAtyieYQpwOn-19" edge="1">
          <mxGeometry relative="1" as="geometry" />
        </mxCell>
        <mxCell id="35l89LsYAAtyieYQpwOn-21" value="Przekazanie dokumentacji do działu rozchodów dokumentacji" style="points=[[0.25,0,0],[0.5,0,0],[0.75,0,0],[1,0.25,0],[1,0.5,0],[1,0.75,0],[0.75,1,0],[0.5,1,0],[0.25,1,0],[0,0.75,0],[0,0.5,0],[0,0.25,0]];shape=mxgraph.bpmn.task;whiteSpace=wrap;rectStyle=rounded;size=10;html=1;container=1;expand=0;collapsible=0;taskMarker=abstract;" parent="35l89LsYAAtyieYQpwOn-2" vertex="1">
          <mxGeometry x="5" y="620" width="120" height="60" as="geometry" />
        </mxCell>
        <mxCell id="35l89LsYAAtyieYQpwOn-3" value="Rozchód dokumentacji" style="swimlane;html=1;startSize=20;" parent="35l89LsYAAtyieYQpwOn-1" vertex="1">
          <mxGeometry x="200" y="20" width="310" height="810" as="geometry" />
        </mxCell>
        <mxCell id="35l89LsYAAtyieYQpwOn-25" style="edgeStyle=orthogonalEdgeStyle;rounded=0;orthogonalLoop=1;jettySize=auto;html=1;" parent="35l89LsYAAtyieYQpwOn-3" source="35l89LsYAAtyieYQpwOn-22" target="35l89LsYAAtyieYQpwOn-24" edge="1">
          <mxGeometry relative="1" as="geometry" />
        </mxCell>
        <mxCell id="35l89LsYAAtyieYQpwOn-22" value="Sporządzenie dokumentacji przez biuro prezesa przedsiębiorstwa" style="points=[[0.25,0,0],[0.5,0,0],[0.75,0,0],[1,0.25,0],[1,0.5,0],[1,0.75,0],[0.75,1,0],[0.5,1,0],[0.25,1,0],[0,0.75,0],[0,0.5,0],[0,0.25,0]];shape=mxgraph.bpmn.task;whiteSpace=wrap;rectStyle=rounded;size=10;html=1;container=1;expand=0;collapsible=0;taskMarker=abstract;" parent="35l89LsYAAtyieYQpwOn-3" vertex="1">
          <mxGeometry x="20" y="110" width="120" height="70" as="geometry" />
        </mxCell>
        <mxCell id="35l89LsYAAtyieYQpwOn-24" value="Sprawdzenie ilości wydanych dokumentów" style="points=[[0.25,0,0],[0.5,0,0],[0.75,0,0],[1,0.25,0],[1,0.5,0],[1,0.75,0],[0.75,1,0],[0.5,1,0],[0.25,1,0],[0,0.75,0],[0,0.5,0],[0,0.25,0]];shape=mxgraph.bpmn.task;whiteSpace=wrap;rectStyle=rounded;size=10;html=1;container=1;expand=0;collapsible=0;taskMarker=abstract;" parent="35l89LsYAAtyieYQpwOn-3" vertex="1">
          <mxGeometry x="20" y="200" width="120" height="50" as="geometry" />
        </mxCell>
        <mxCell id="35l89LsYAAtyieYQpwOn-30" style="edgeStyle=orthogonalEdgeStyle;rounded=0;orthogonalLoop=1;jettySize=auto;html=1;exitX=0;exitY=0.5;exitDx=0;exitDy=0;exitPerimeter=0;" parent="35l89LsYAAtyieYQpwOn-3" source="35l89LsYAAtyieYQpwOn-26" target="35l89LsYAAtyieYQpwOn-29" edge="1">
          <mxGeometry relative="1" as="geometry">
            <Array as="points">
              <mxPoint x="35" y="305" />
              <mxPoint x="35" y="350" />
              <mxPoint x="75" y="350" />
            </Array>
          </mxGeometry>
        </mxCell>
        <mxCell id="35l89LsYAAtyieYQpwOn-26" value="" style="points=[[0.25,0.25,0],[0.5,0,0],[0.75,0.25,0],[1,0.5,0],[0.75,0.75,0],[0.5,1,0],[0.25,0.75,0],[0,0.5,0]];shape=mxgraph.bpmn.gateway2;html=1;verticalLabelPosition=bottom;labelBackgroundColor=#ffffff;verticalAlign=top;align=center;perimeter=rhombusPerimeter;outlineConnect=0;outline=none;symbol=none;gwType=parallel;" parent="35l89LsYAAtyieYQpwOn-3" vertex="1">
          <mxGeometry x="55" y="280" width="50" height="50" as="geometry" />
        </mxCell>
        <mxCell id="35l89LsYAAtyieYQpwOn-27" style="edgeStyle=orthogonalEdgeStyle;rounded=0;orthogonalLoop=1;jettySize=auto;html=1;entryX=0.5;entryY=0;entryDx=0;entryDy=0;entryPerimeter=0;" parent="35l89LsYAAtyieYQpwOn-3" source="35l89LsYAAtyieYQpwOn-24" target="35l89LsYAAtyieYQpwOn-26" edge="1">
          <mxGeometry relative="1" as="geometry" />
        </mxCell>
        <mxCell id="35l89LsYAAtyieYQpwOn-29" value="Rozdysponowanie dokumentacji halę produkcyjną do stanowisk produkcyjnych" style="points=[[0.25,0,0],[0.5,0,0],[0.75,0,0],[1,0.25,0],[1,0.5,0],[1,0.75,0],[0.75,1,0],[0.5,1,0],[0.25,1,0],[0,0.75,0],[0,0.5,0],[0,0.25,0]];shape=mxgraph.bpmn.task;whiteSpace=wrap;rectStyle=rounded;size=10;html=1;container=1;expand=0;collapsible=0;taskMarker=abstract;" parent="35l89LsYAAtyieYQpwOn-3" vertex="1">
          <mxGeometry x="20" y="360" width="110" height="80" as="geometry" />
        </mxCell>
        <mxCell id="35l89LsYAAtyieYQpwOn-31" value="Rozdysponowanie dokumentacji do magazynu" style="points=[[0.25,0,0],[0.5,0,0],[0.75,0,0],[1,0.25,0],[1,0.5,0],[1,0.75,0],[0.75,1,0],[0.5,1,0],[0.25,1,0],[0,0.75,0],[0,0.5,0],[0,0.25,0]];shape=mxgraph.bpmn.task;whiteSpace=wrap;rectStyle=rounded;size=10;html=1;container=1;expand=0;collapsible=0;taskMarker=abstract;" parent="35l89LsYAAtyieYQpwOn-3" vertex="1">
          <mxGeometry x="160" y="360" width="110" height="60" as="geometry" />
        </mxCell>
        <mxCell id="35l89LsYAAtyieYQpwOn-32" style="edgeStyle=orthogonalEdgeStyle;rounded=0;orthogonalLoop=1;jettySize=auto;html=1;exitX=1;exitY=0.5;exitDx=0;exitDy=0;exitPerimeter=0;entryX=0.5;entryY=0;entryDx=0;entryDy=0;entryPerimeter=0;" parent="35l89LsYAAtyieYQpwOn-3" source="35l89LsYAAtyieYQpwOn-26" target="35l89LsYAAtyieYQpwOn-31" edge="1">
          <mxGeometry relative="1" as="geometry" />
        </mxCell>
        <mxCell id="35l89LsYAAtyieYQpwOn-4" value="Przezbrajanie maszyn" style="swimlane;html=1;startSize=20;" parent="35l89LsYAAtyieYQpwOn-1" vertex="1">
          <mxGeometry x="510" y="20" width="140" height="810" as="geometry" />
        </mxCell>
        <mxCell id="JsTQCJMFWoug1RBVBAy1-2" style="edgeStyle=orthogonalEdgeStyle;rounded=0;orthogonalLoop=1;jettySize=auto;html=1;" edge="1" parent="35l89LsYAAtyieYQpwOn-4" source="35l89LsYAAtyieYQpwOn-34" target="JsTQCJMFWoug1RBVBAy1-1">
          <mxGeometry relative="1" as="geometry" />
        </mxCell>
        <mxCell id="35l89LsYAAtyieYQpwOn-34" value="Zapoznanie się z zapotrzebowaniem na stanowiskach produkcyjnych poprzez odczytanie dokumentacji" style="points=[[0.25,0,0],[0.5,0,0],[0.75,0,0],[1,0.25,0],[1,0.5,0],[1,0.75,0],[0.75,1,0],[0.5,1,0],[0.25,1,0],[0,0.75,0],[0,0.5,0],[0,0.25,0]];shape=mxgraph.bpmn.task;whiteSpace=wrap;rectStyle=rounded;size=10;html=1;container=1;expand=0;collapsible=0;taskMarker=abstract;" parent="35l89LsYAAtyieYQpwOn-4" vertex="1">
          <mxGeometry x="10" y="105" width="120" height="95" as="geometry" />
        </mxCell>
        <mxCell id="JsTQCJMFWoug1RBVBAy1-1" value="Decyzja o przezbrojeniu maszyny" style="points=[[0.25,0,0],[0.5,0,0],[0.75,0,0],[1,0.25,0],[1,0.5,0],[1,0.75,0],[0.75,1,0],[0.5,1,0],[0.25,1,0],[0,0.75,0],[0,0.5,0],[0,0.25,0]];shape=mxgraph.bpmn.task;whiteSpace=wrap;rectStyle=rounded;size=10;html=1;container=1;expand=0;collapsible=0;taskMarker=abstract;" vertex="1" parent="35l89LsYAAtyieYQpwOn-4">
          <mxGeometry x="10" y="220" width="120" height="45" as="geometry" />
        </mxCell>
        <mxCell id="JsTQCJMFWoug1RBVBAy1-3" value="Wpis do dokumentacji o przezbrojeniu maszyn" style="points=[[0.25,0,0],[0.5,0,0],[0.75,0,0],[1,0.25,0],[1,0.5,0],[1,0.75,0],[0.75,1,0],[0.5,1,0],[0.25,1,0],[0,0.75,0],[0,0.5,0],[0,0.25,0]];shape=mxgraph.bpmn.task;whiteSpace=wrap;rectStyle=rounded;size=10;html=1;container=1;expand=0;collapsible=0;taskMarker=abstract;" vertex="1" parent="35l89LsYAAtyieYQpwOn-4">
          <mxGeometry x="10" y="290" width="120" height="50" as="geometry" />
        </mxCell>
        <mxCell id="JsTQCJMFWoug1RBVBAy1-4" style="edgeStyle=orthogonalEdgeStyle;rounded=0;orthogonalLoop=1;jettySize=auto;html=1;entryX=0.5;entryY=0;entryDx=0;entryDy=0;entryPerimeter=0;" edge="1" parent="35l89LsYAAtyieYQpwOn-4" source="JsTQCJMFWoug1RBVBAy1-1" target="JsTQCJMFWoug1RBVBAy1-3">
          <mxGeometry relative="1" as="geometry" />
        </mxCell>
        <mxCell id="JsTQCJMFWoug1RBVBAy1-8" style="edgeStyle=orthogonalEdgeStyle;rounded=0;orthogonalLoop=1;jettySize=auto;html=1;" edge="1" parent="35l89LsYAAtyieYQpwOn-4" source="JsTQCJMFWoug1RBVBAy1-5" target="JsTQCJMFWoug1RBVBAy1-7">
          <mxGeometry relative="1" as="geometry" />
        </mxCell>
        <mxCell id="JsTQCJMFWoug1RBVBAy1-5" value="Przezbrojenie maszyny na stanowisku produkcyjnym" style="points=[[0.25,0,0],[0.5,0,0],[0.75,0,0],[1,0.25,0],[1,0.5,0],[1,0.75,0],[0.75,1,0],[0.5,1,0],[0.25,1,0],[0,0.75,0],[0,0.5,0],[0,0.25,0]];shape=mxgraph.bpmn.task;whiteSpace=wrap;rectStyle=rounded;size=10;html=1;container=1;expand=0;collapsible=0;taskMarker=abstract;" vertex="1" parent="35l89LsYAAtyieYQpwOn-4">
          <mxGeometry x="10" y="360" width="120" height="60" as="geometry" />
        </mxCell>
        <mxCell id="JsTQCJMFWoug1RBVBAy1-6" style="edgeStyle=orthogonalEdgeStyle;rounded=0;orthogonalLoop=1;jettySize=auto;html=1;entryX=0.5;entryY=0;entryDx=0;entryDy=0;entryPerimeter=0;" edge="1" parent="35l89LsYAAtyieYQpwOn-4" source="JsTQCJMFWoug1RBVBAy1-3" target="JsTQCJMFWoug1RBVBAy1-5">
          <mxGeometry relative="1" as="geometry" />
        </mxCell>
        <mxCell id="JsTQCJMFWoug1RBVBAy1-10" style="edgeStyle=orthogonalEdgeStyle;rounded=0;orthogonalLoop=1;jettySize=auto;html=1;" edge="1" parent="35l89LsYAAtyieYQpwOn-4" source="JsTQCJMFWoug1RBVBAy1-7" target="JsTQCJMFWoug1RBVBAy1-9">
          <mxGeometry relative="1" as="geometry" />
        </mxCell>
        <mxCell id="JsTQCJMFWoug1RBVBAy1-7" value="Sprawdzenie stanu przezbrojonej maszyny" style="points=[[0.25,0,0],[0.5,0,0],[0.75,0,0],[1,0.25,0],[1,0.5,0],[1,0.75,0],[0.75,1,0],[0.5,1,0],[0.25,1,0],[0,0.75,0],[0,0.5,0],[0,0.25,0]];shape=mxgraph.bpmn.task;whiteSpace=wrap;rectStyle=rounded;size=10;html=1;container=1;expand=0;collapsible=0;taskMarker=abstract;" vertex="1" parent="35l89LsYAAtyieYQpwOn-4">
          <mxGeometry x="10" y="480" width="120" height="50" as="geometry" />
        </mxCell>
        <mxCell id="JsTQCJMFWoug1RBVBAy1-12" style="edgeStyle=orthogonalEdgeStyle;rounded=0;orthogonalLoop=1;jettySize=auto;html=1;" edge="1" parent="35l89LsYAAtyieYQpwOn-4" source="JsTQCJMFWoug1RBVBAy1-9" target="JsTQCJMFWoug1RBVBAy1-11">
          <mxGeometry relative="1" as="geometry" />
        </mxCell>
        <mxCell id="JsTQCJMFWoug1RBVBAy1-9" value="Wpisanie do dokumentacji stanu przezbrojonej maszyny" style="points=[[0.25,0,0],[0.5,0,0],[0.75,0,0],[1,0.25,0],[1,0.5,0],[1,0.75,0],[0.75,1,0],[0.5,1,0],[0.25,1,0],[0,0.75,0],[0,0.5,0],[0,0.25,0]];shape=mxgraph.bpmn.task;whiteSpace=wrap;rectStyle=rounded;size=10;html=1;container=1;expand=0;collapsible=0;taskMarker=abstract;" vertex="1" parent="35l89LsYAAtyieYQpwOn-4">
          <mxGeometry x="10" y="550" width="120" height="60" as="geometry" />
        </mxCell>
        <mxCell id="JsTQCJMFWoug1RBVBAy1-11" value="" style="points=[[0.145,0.145,0],[0.5,0,0],[0.855,0.145,0],[1,0.5,0],[0.855,0.855,0],[0.5,1,0],[0.145,0.855,0],[0,0.5,0]];shape=mxgraph.bpmn.event;html=1;verticalLabelPosition=bottom;labelBackgroundColor=#ffffff;verticalAlign=top;align=center;perimeter=ellipsePerimeter;outlineConnect=0;aspect=fixed;outline=end;symbol=terminate2;" vertex="1" parent="35l89LsYAAtyieYQpwOn-4">
          <mxGeometry x="45" y="630" width="50" height="50" as="geometry" />
        </mxCell>
        <mxCell id="35l89LsYAAtyieYQpwOn-23" style="edgeStyle=orthogonalEdgeStyle;rounded=0;orthogonalLoop=1;jettySize=auto;html=1;entryX=0.5;entryY=0;entryDx=0;entryDy=0;entryPerimeter=0;exitX=0.5;exitY=1;exitDx=0;exitDy=0;exitPerimeter=0;" parent="35l89LsYAAtyieYQpwOn-1" source="35l89LsYAAtyieYQpwOn-21" target="35l89LsYAAtyieYQpwOn-22" edge="1">
          <mxGeometry relative="1" as="geometry" />
        </mxCell>
        <mxCell id="35l89LsYAAtyieYQpwOn-33" style="edgeStyle=orthogonalEdgeStyle;rounded=0;orthogonalLoop=1;jettySize=auto;html=1;exitX=0.5;exitY=1;exitDx=0;exitDy=0;exitPerimeter=0;entryX=0.5;entryY=0;entryDx=0;entryDy=0;entryPerimeter=0;" parent="35l89LsYAAtyieYQpwOn-1" source="35l89LsYAAtyieYQpwOn-31" target="35l89LsYAAtyieYQpwOn-34" edge="1">
          <mxGeometry relative="1" as="geometry">
            <mxPoint x="470" y="110" as="targetPoint" />
          </mxGeometry>
        </mxCell>
        <mxCell id="35l89LsYAAtyieYQpwOn-36" style="edgeStyle=orthogonalEdgeStyle;rounded=0;orthogonalLoop=1;jettySize=auto;html=1;entryX=0.5;entryY=0;entryDx=0;entryDy=0;entryPerimeter=0;exitX=0.5;exitY=1;exitDx=0;exitDy=0;exitPerimeter=0;" parent="35l89LsYAAtyieYQpwOn-1" source="35l89LsYAAtyieYQpwOn-29" target="35l89LsYAAtyieYQpwOn-35" edge="1">
          <mxGeometry relative="1" as="geometry">
            <Array as="points">
              <mxPoint x="275" y="480" />
              <mxPoint x="660" y="480" />
              <mxPoint x="660" y="110" />
              <mxPoint x="785" y="110" />
            </Array>
          </mxGeometry>
        </mxCell>
        <mxCell id="35l89LsYAAtyieYQpwOn-5" value="Realizacja produkcji" style="swimlane;startSize=20;whiteSpace=wrap;html=1;" parent="35l89LsYAAtyieYQpwOn-1" vertex="1">
          <mxGeometry x="650" y="20" width="270" height="810" as="geometry" />
        </mxCell>
        <mxCell id="35l89LsYAAtyieYQpwOn-35" value="Sprawdzenie zapotrzebowania produkcyjnego na poszczególnych stanowiskach" style="points=[[0.25,0,0],[0.5,0,0],[0.75,0,0],[1,0.25,0],[1,0.5,0],[1,0.75,0],[0.75,1,0],[0.5,1,0],[0.25,1,0],[0,0.75,0],[0,0.5,0],[0,0.25,0]];shape=mxgraph.bpmn.task;whiteSpace=wrap;rectStyle=rounded;size=10;html=1;container=1;expand=0;collapsible=0;taskMarker=abstract;" parent="35l89LsYAAtyieYQpwOn-5" vertex="1">
          <mxGeometry x="75" y="110" width="120" height="70" as="geometry" />
        </mxCell>
        <mxCell id="JsTQCJMFWoug1RBVBAy1-13" value="Sprawdzenie stanu surowców na stanowiskach produkcyjnych" style="points=[[0.25,0,0],[0.5,0,0],[0.75,0,0],[1,0.25,0],[1,0.5,0],[1,0.75,0],[0.75,1,0],[0.5,1,0],[0.25,1,0],[0,0.75,0],[0,0.5,0],[0,0.25,0]];shape=mxgraph.bpmn.task;whiteSpace=wrap;rectStyle=rounded;size=10;html=1;container=1;expand=0;collapsible=0;taskMarker=abstract;" vertex="1" parent="35l89LsYAAtyieYQpwOn-5">
          <mxGeometry x="75" y="207.5" width="120" height="62.5" as="geometry" />
        </mxCell>
        <mxCell id="JsTQCJMFWoug1RBVBAy1-14" style="edgeStyle=orthogonalEdgeStyle;rounded=0;orthogonalLoop=1;jettySize=auto;html=1;entryX=0.5;entryY=0;entryDx=0;entryDy=0;entryPerimeter=0;" edge="1" parent="35l89LsYAAtyieYQpwOn-5" source="35l89LsYAAtyieYQpwOn-35" target="JsTQCJMFWoug1RBVBAy1-13">
          <mxGeometry relative="1" as="geometry" />
        </mxCell>
        <mxCell id="JsTQCJMFWoug1RBVBAy1-18" style="edgeStyle=orthogonalEdgeStyle;rounded=0;orthogonalLoop=1;jettySize=auto;html=1;exitX=0;exitY=0.5;exitDx=0;exitDy=0;exitPerimeter=0;" edge="1" parent="35l89LsYAAtyieYQpwOn-5" source="JsTQCJMFWoug1RBVBAy1-15" target="JsTQCJMFWoug1RBVBAy1-17">
          <mxGeometry relative="1" as="geometry" />
        </mxCell>
        <mxCell id="JsTQCJMFWoug1RBVBAy1-20" style="edgeStyle=orthogonalEdgeStyle;rounded=0;orthogonalLoop=1;jettySize=auto;html=1;exitX=1;exitY=0.5;exitDx=0;exitDy=0;exitPerimeter=0;" edge="1" parent="35l89LsYAAtyieYQpwOn-5" source="JsTQCJMFWoug1RBVBAy1-15" target="JsTQCJMFWoug1RBVBAy1-19">
          <mxGeometry relative="1" as="geometry">
            <Array as="points">
              <mxPoint x="162" y="320" />
              <mxPoint x="205" y="320" />
            </Array>
          </mxGeometry>
        </mxCell>
        <mxCell id="JsTQCJMFWoug1RBVBAy1-15" value="" style="points=[[0.25,0.25,0],[0.5,0,0],[0.75,0.25,0],[1,0.5,0],[0.75,0.75,0],[0.5,1,0],[0.25,0.75,0],[0,0.5,0]];shape=mxgraph.bpmn.gateway2;html=1;verticalLabelPosition=bottom;labelBackgroundColor=#ffffff;verticalAlign=top;align=center;perimeter=rhombusPerimeter;outlineConnect=0;outline=none;symbol=none;gwType=parallel;" vertex="1" parent="35l89LsYAAtyieYQpwOn-5">
          <mxGeometry x="112" y="300" width="50" height="50" as="geometry" />
        </mxCell>
        <mxCell id="JsTQCJMFWoug1RBVBAy1-16" style="edgeStyle=orthogonalEdgeStyle;rounded=0;orthogonalLoop=1;jettySize=auto;html=1;entryX=0.5;entryY=0;entryDx=0;entryDy=0;entryPerimeter=0;" edge="1" parent="35l89LsYAAtyieYQpwOn-5" source="JsTQCJMFWoug1RBVBAy1-13" target="JsTQCJMFWoug1RBVBAy1-15">
          <mxGeometry relative="1" as="geometry" />
        </mxCell>
        <mxCell id="JsTQCJMFWoug1RBVBAy1-17" value="Realizacja produkcji" style="points=[[0.25,0,0],[0.5,0,0],[0.75,0,0],[1,0.25,0],[1,0.5,0],[1,0.75,0],[0.75,1,0],[0.5,1,0],[0.25,1,0],[0,0.75,0],[0,0.5,0],[0,0.25,0]];shape=mxgraph.bpmn.task;whiteSpace=wrap;rectStyle=rounded;size=10;html=1;container=1;expand=0;collapsible=0;taskMarker=abstract;" vertex="1" parent="35l89LsYAAtyieYQpwOn-5">
          <mxGeometry x="20" y="370" width="110" height="30" as="geometry" />
        </mxCell>
        <mxCell id="JsTQCJMFWoug1RBVBAy1-22" style="edgeStyle=orthogonalEdgeStyle;rounded=0;orthogonalLoop=1;jettySize=auto;html=1;" edge="1" parent="35l89LsYAAtyieYQpwOn-5" source="JsTQCJMFWoug1RBVBAy1-19" target="JsTQCJMFWoug1RBVBAy1-21">
          <mxGeometry relative="1" as="geometry" />
        </mxCell>
        <mxCell id="JsTQCJMFWoug1RBVBAy1-19" value="Wpis do dokumentacji" style="points=[[0.25,0,0],[0.5,0,0],[0.75,0,0],[1,0.25,0],[1,0.5,0],[1,0.75,0],[0.75,1,0],[0.5,1,0],[0.25,1,0],[0,0.75,0],[0,0.5,0],[0,0.25,0]];shape=mxgraph.bpmn.task;whiteSpace=wrap;rectStyle=rounded;size=10;html=1;container=1;expand=0;collapsible=0;taskMarker=abstract;" vertex="1" parent="35l89LsYAAtyieYQpwOn-5">
          <mxGeometry x="150" y="370" width="110" height="30" as="geometry" />
        </mxCell>
        <mxCell id="JsTQCJMFWoug1RBVBAy1-21" value="" style="points=[[0.145,0.145,0],[0.5,0,0],[0.855,0.145,0],[1,0.5,0],[0.855,0.855,0],[0.5,1,0],[0.145,0.855,0],[0,0.5,0]];shape=mxgraph.bpmn.event;html=1;verticalLabelPosition=bottom;labelBackgroundColor=#ffffff;verticalAlign=top;align=center;perimeter=ellipsePerimeter;outlineConnect=0;aspect=fixed;outline=end;symbol=terminate2;" vertex="1" parent="35l89LsYAAtyieYQpwOn-5">
          <mxGeometry x="180" y="420" width="50" height="50" as="geometry" />
        </mxCell>
        <mxCell id="JsTQCJMFWoug1RBVBAy1-26" style="edgeStyle=orthogonalEdgeStyle;rounded=0;orthogonalLoop=1;jettySize=auto;html=1;exitX=0.5;exitY=1;exitDx=0;exitDy=0;exitPerimeter=0;" edge="1" parent="35l89LsYAAtyieYQpwOn-5" source="JsTQCJMFWoug1RBVBAy1-23" target="JsTQCJMFWoug1RBVBAy1-25">
          <mxGeometry relative="1" as="geometry" />
        </mxCell>
        <mxCell id="JsTQCJMFWoug1RBVBAy1-23" value="Zakończenie produkcji" style="points=[[0.25,0,0],[0.5,0,0],[0.75,0,0],[1,0.25,0],[1,0.5,0],[1,0.75,0],[0.75,1,0],[0.5,1,0],[0.25,1,0],[0,0.75,0],[0,0.5,0],[0,0.25,0]];shape=mxgraph.bpmn.task;whiteSpace=wrap;rectStyle=rounded;size=10;html=1;container=1;expand=0;collapsible=0;taskMarker=abstract;" vertex="1" parent="35l89LsYAAtyieYQpwOn-5">
          <mxGeometry x="20" y="430" width="110" height="30" as="geometry" />
        </mxCell>
        <mxCell id="JsTQCJMFWoug1RBVBAy1-24" style="edgeStyle=orthogonalEdgeStyle;rounded=0;orthogonalLoop=1;jettySize=auto;html=1;entryX=0.5;entryY=0;entryDx=0;entryDy=0;entryPerimeter=0;" edge="1" parent="35l89LsYAAtyieYQpwOn-5" source="JsTQCJMFWoug1RBVBAy1-17" target="JsTQCJMFWoug1RBVBAy1-23">
          <mxGeometry relative="1" as="geometry" />
        </mxCell>
        <mxCell id="JsTQCJMFWoug1RBVBAy1-25" value="Wyłączenie maszyn" style="points=[[0.25,0,0],[0.5,0,0],[0.75,0,0],[1,0.25,0],[1,0.5,0],[1,0.75,0],[0.75,1,0],[0.5,1,0],[0.25,1,0],[0,0.75,0],[0,0.5,0],[0,0.25,0]];shape=mxgraph.bpmn.task;whiteSpace=wrap;rectStyle=rounded;size=10;html=1;container=1;expand=0;collapsible=0;taskMarker=abstract;" vertex="1" parent="35l89LsYAAtyieYQpwOn-5">
          <mxGeometry x="20" y="480" width="110" height="30" as="geometry" />
        </mxCell>
        <mxCell id="JsTQCJMFWoug1RBVBAy1-27" value="" style="points=[[0.25,0.25,0],[0.5,0,0],[0.75,0.25,0],[1,0.5,0],[0.75,0.75,0],[0.5,1,0],[0.25,0.75,0],[0,0.5,0]];shape=mxgraph.bpmn.gateway2;html=1;verticalLabelPosition=bottom;labelBackgroundColor=#ffffff;verticalAlign=top;align=center;perimeter=rhombusPerimeter;outlineConnect=0;outline=none;symbol=none;gwType=parallel;" vertex="1" parent="35l89LsYAAtyieYQpwOn-5">
          <mxGeometry x="50" y="530" width="50" height="50" as="geometry" />
        </mxCell>
        <mxCell id="JsTQCJMFWoug1RBVBAy1-28" style="edgeStyle=orthogonalEdgeStyle;rounded=0;orthogonalLoop=1;jettySize=auto;html=1;entryX=0.5;entryY=0;entryDx=0;entryDy=0;entryPerimeter=0;" edge="1" parent="35l89LsYAAtyieYQpwOn-5" source="JsTQCJMFWoug1RBVBAy1-25" target="JsTQCJMFWoug1RBVBAy1-27">
          <mxGeometry relative="1" as="geometry" />
        </mxCell>
        <mxCell id="JsTQCJMFWoug1RBVBAy1-35" style="edgeStyle=orthogonalEdgeStyle;rounded=0;orthogonalLoop=1;jettySize=auto;html=1;entryX=0;entryY=0.5;entryDx=0;entryDy=0;entryPerimeter=0;" edge="1" parent="35l89LsYAAtyieYQpwOn-5" source="JsTQCJMFWoug1RBVBAy1-29" target="JsTQCJMFWoug1RBVBAy1-33">
          <mxGeometry relative="1" as="geometry">
            <mxPoint x="110" y="710" as="targetPoint" />
            <Array as="points">
              <mxPoint x="70" y="705" />
            </Array>
          </mxGeometry>
        </mxCell>
        <mxCell id="JsTQCJMFWoug1RBVBAy1-29" value="Sprawdzenie stanu stanowiska produkcyjnego" style="points=[[0.25,0,0],[0.5,0,0],[0.75,0,0],[1,0.25,0],[1,0.5,0],[1,0.75,0],[0.75,1,0],[0.5,1,0],[0.25,1,0],[0,0.75,0],[0,0.5,0],[0,0.25,0]];shape=mxgraph.bpmn.task;whiteSpace=wrap;rectStyle=rounded;size=10;html=1;container=1;expand=0;collapsible=0;taskMarker=abstract;" vertex="1" parent="35l89LsYAAtyieYQpwOn-5">
          <mxGeometry x="10" y="610" width="120" height="50" as="geometry" />
        </mxCell>
        <mxCell id="JsTQCJMFWoug1RBVBAy1-30" style="edgeStyle=orthogonalEdgeStyle;rounded=0;orthogonalLoop=1;jettySize=auto;html=1;entryX=0.155;entryY=0.016;entryDx=0;entryDy=0;entryPerimeter=0;exitX=0;exitY=0.5;exitDx=0;exitDy=0;exitPerimeter=0;" edge="1" parent="35l89LsYAAtyieYQpwOn-5" source="JsTQCJMFWoug1RBVBAy1-27" target="JsTQCJMFWoug1RBVBAy1-29">
          <mxGeometry relative="1" as="geometry" />
        </mxCell>
        <mxCell id="JsTQCJMFWoug1RBVBAy1-31" value="Wpis do dokumentacji produkcyjnej" style="points=[[0.25,0,0],[0.5,0,0],[0.75,0,0],[1,0.25,0],[1,0.5,0],[1,0.75,0],[0.75,1,0],[0.5,1,0],[0.25,1,0],[0,0.75,0],[0,0.5,0],[0,0.25,0]];shape=mxgraph.bpmn.task;whiteSpace=wrap;rectStyle=rounded;size=10;html=1;container=1;expand=0;collapsible=0;taskMarker=abstract;" vertex="1" parent="35l89LsYAAtyieYQpwOn-5">
          <mxGeometry x="145" y="610" width="120" height="50" as="geometry" />
        </mxCell>
        <mxCell id="JsTQCJMFWoug1RBVBAy1-32" style="edgeStyle=orthogonalEdgeStyle;rounded=0;orthogonalLoop=1;jettySize=auto;html=1;entryX=0.5;entryY=0;entryDx=0;entryDy=0;entryPerimeter=0;" edge="1" parent="35l89LsYAAtyieYQpwOn-5" source="JsTQCJMFWoug1RBVBAy1-27" target="JsTQCJMFWoug1RBVBAy1-31">
          <mxGeometry relative="1" as="geometry" />
        </mxCell>
        <mxCell id="JsTQCJMFWoug1RBVBAy1-33" value="" style="points=[[0.25,0.25,0],[0.5,0,0],[0.75,0.25,0],[1,0.5,0],[0.75,0.75,0],[0.5,1,0],[0.25,0.75,0],[0,0.5,0]];shape=mxgraph.bpmn.gateway2;html=1;verticalLabelPosition=bottom;labelBackgroundColor=#ffffff;verticalAlign=top;align=center;perimeter=rhombusPerimeter;outlineConnect=0;outline=none;symbol=none;gwType=parallel;" vertex="1" parent="35l89LsYAAtyieYQpwOn-5">
          <mxGeometry x="112" y="680" width="50" height="50" as="geometry" />
        </mxCell>
        <mxCell id="JsTQCJMFWoug1RBVBAy1-34" style="edgeStyle=orthogonalEdgeStyle;rounded=0;orthogonalLoop=1;jettySize=auto;html=1;entryX=1;entryY=0.5;entryDx=0;entryDy=0;entryPerimeter=0;" edge="1" parent="35l89LsYAAtyieYQpwOn-5" source="JsTQCJMFWoug1RBVBAy1-31" target="JsTQCJMFWoug1RBVBAy1-33">
          <mxGeometry relative="1" as="geometry" />
        </mxCell>
        <mxCell id="JsTQCJMFWoug1RBVBAy1-36" value="" style="points=[[0.145,0.145,0],[0.5,0,0],[0.855,0.145,0],[1,0.5,0],[0.855,0.855,0],[0.5,1,0],[0.145,0.855,0],[0,0.5,0]];shape=mxgraph.bpmn.event;html=1;verticalLabelPosition=bottom;labelBackgroundColor=#ffffff;verticalAlign=top;align=center;perimeter=ellipsePerimeter;outlineConnect=0;aspect=fixed;outline=end;symbol=terminate2;" vertex="1" parent="35l89LsYAAtyieYQpwOn-5">
          <mxGeometry x="112" y="750" width="50" height="50" as="geometry" />
        </mxCell>
        <mxCell id="JsTQCJMFWoug1RBVBAy1-39" style="edgeStyle=orthogonalEdgeStyle;rounded=0;orthogonalLoop=1;jettySize=auto;html=1;entryX=0.5;entryY=0;entryDx=0;entryDy=0;entryPerimeter=0;" edge="1" parent="35l89LsYAAtyieYQpwOn-5" source="JsTQCJMFWoug1RBVBAy1-33" target="JsTQCJMFWoug1RBVBAy1-36">
          <mxGeometry relative="1" as="geometry" />
        </mxCell>
      </root>
    </mxGraphModel>
  </diagram>
</mxfile>
